<svg version="1.1" id="Layer_1" xmlns="http://www.w3.org/2000/svg" xmlns:xlink="http://www.w3.org/1999/xlink" x="0px" y="0px"
	 width="100%" viewBox="0 0 578 564" enable-background="new 0 0 578 564" xml:space="preserve">
<path fill="#000000" opacity="1.000000" stroke="none" 
	d="
M1.000003,199.000000 
	C1.000000,164.312439 1.000000,129.624878 1.294334,94.149666 
	C2.630059,95.307655 3.509918,97.362488 4.739334,99.181015 
	C12.138726,110.126060 21.915430,115.763901 35.709614,115.197594 
	C49.082020,114.648590 65.498344,100.541924 65.037003,85.830620 
	C64.820290,78.920029 64.999886,71.997009 64.999886,65.376236 
	C215.458298,65.376236 365.189514,65.376236 514.788574,65.376236 
	C514.788574,210.699448 514.788574,355.646362 514.788574,501.000000 
	C505.460754,501.000000 496.336334,501.122009 487.216339,500.974396 
	C468.610565,500.673218 452.070862,520.221252 457.836670,541.400269 
	C460.744843,552.082642 467.338470,559.233521 477.578949,563.214966 
	C477.901794,563.340515 477.867706,564.384277 478.000000,565.000000 
	C442.645782,565.000000 407.291534,565.000000 371.152100,564.716919 
	C370.982117,563.947205 371.532196,563.324646 372.222168,562.994202 
	C386.201996,556.298279 392.772736,545.597107 392.185028,529.743591 
	C391.682922,516.198608 376.765167,500.897675 362.895050,500.919373 
	C265.622345,501.071442 168.349274,500.999969 71.076332,501.000000 
	C69.140266,501.000000 67.204208,501.000000 65.000000,501.000000 
	C65.000000,498.650513 65.000008,496.843353 65.000008,495.036163 
	C64.999985,399.761963 64.919357,304.487640 65.106499,209.213806 
	C65.128777,197.869568 60.089279,189.390320 51.565147,183.427673 
	C35.498177,172.188766 12.034858,177.107681 2.946820,197.550186 
	C2.660335,198.194595 1.664924,198.523834 1.000003,199.000000 
M132.649261,133.039474 
	C116.859444,147.678680 110.622002,166.021744 113.167892,187.022736 
	C114.876045,201.113342 121.545410,213.374664 132.392853,222.638611 
	C145.449646,233.789398 160.836517,238.731049 178.103745,236.987579 
	C193.249374,235.458328 206.417694,229.274002 216.351196,217.893021 
	C227.336105,205.307388 232.310562,190.348206 231.109436,173.293488 
	C229.997589,157.506683 223.677689,144.244125 212.181656,133.976776 
	C200.177689,123.255768 185.831085,117.975586 169.233078,118.860420 
	C155.521469,119.591385 143.582397,123.819046 132.649261,133.039474 
M234.036240,263.787750 
	C230.158157,273.089264 228.420074,282.668793 228.896088,292.841034 
	C229.531647,306.422516 234.453384,318.132019 243.525574,327.890533 
	C256.183746,341.506287 271.920502,348.067078 290.760773,347.052063 
	C309.602203,346.036987 324.792358,338.375458 336.176788,323.305725 
	C345.963623,310.350708 348.999939,295.383087 346.772919,279.822754 
	C344.535217,264.187988 336.426178,251.415771 323.446838,241.907730 
	C309.729156,231.858765 294.044006,228.799515 277.923859,231.346176 
	C258.498383,234.415024 243.808701,245.525467 234.036240,263.787750 
M368.015961,445.522614 
	C379.560089,454.103180 392.453400,457.768890 406.866760,457.083435 
	C421.596863,456.382874 434.497345,451.366211 445.046082,441.295441 
	C457.502899,429.403046 463.643097,414.778961 463.145355,397.164093 
	C462.723694,382.240601 457.646210,369.549591 447.425079,359.045959 
	C435.416168,346.705139 420.786072,340.701782 403.236053,340.822998 
	C388.114441,340.927460 375.060730,345.818237 364.117401,355.576080 
	C347.081848,370.766174 341.637970,390.352020 346.155151,412.376556 
	C348.905853,425.788361 356.077057,436.944305 368.015961,445.522614 
z"/>
<path fill="#FFF28B" opacity="1.000000" stroke="none" 
	d="
M478.468658,565.000000 
	C477.867706,564.384277 477.901794,563.340515 477.578949,563.214966 
	C467.338470,559.233521 460.744843,552.082642 457.836670,541.400269 
	C452.070862,520.221252 468.610565,500.673218 487.216339,500.974396 
	C496.336334,501.122009 505.460754,501.000000 514.788574,501.000000 
	C514.788574,355.646362 514.788574,210.699448 514.788574,65.376236 
	C365.189514,65.376236 215.458298,65.376236 64.999886,65.376236 
	C64.999886,71.997009 64.820290,78.920029 65.037003,85.830620 
	C65.498344,100.541924 49.082020,114.648590 35.709614,115.197594 
	C21.915430,115.763901 12.138726,110.126060 4.739334,99.181015 
	C3.509918,97.362488 2.630059,95.307655 1.294334,93.681007 
	C1.000000,63.010151 1.000000,32.020298 1.000000,1.015224 
	C193.593445,1.015224 386.186890,1.015224 578.890137,1.015224 
	C578.890137,188.999954 578.890137,376.999969 578.897339,565.000000 
	C545.582153,565.000000 512.259705,565.000000 478.468658,565.000000 
z"/>
<path fill="#FFF28B" opacity="1.000000" stroke="none" 
	d="
M1.000003,199.468658 
	C1.664924,198.523834 2.660335,198.194595 2.946820,197.550186 
	C12.034858,177.107681 35.498177,172.188766 51.565147,183.427673 
	C60.089279,189.390320 65.128777,197.869568 65.106499,209.213806 
	C64.919357,304.487640 64.999985,399.761963 65.000008,495.036163 
	C65.000008,496.843353 65.000000,498.650513 65.000000,501.000000 
	C67.204208,501.000000 69.140266,501.000000 71.076332,501.000000 
	C168.349274,500.999969 265.622345,501.071442 362.895050,500.919373 
	C376.765167,500.897675 391.682922,516.198608 392.185028,529.743591 
	C392.772736,545.597107 386.201996,556.298279 372.222168,562.994202 
	C371.532196,563.324646 370.982117,563.947205 370.683472,564.716919 
	C247.739990,565.000000 124.479973,565.000000 1.000000,565.000000 
	C1.000000,443.312531 1.000000,321.624908 1.000003,199.468658 
z"/>
<path fill="#FFF28B" opacity="1.000000" stroke="none" 
	d="
M133.010727,132.998840 
	C143.582397,123.819046 155.521469,119.591385 169.233078,118.860420 
	C185.831085,117.975586 200.177689,123.255768 212.181656,133.976776 
	C223.677689,144.244125 229.997589,157.506683 231.109436,173.293488 
	C232.310562,190.348206 227.336105,205.307388 216.351196,217.893021 
	C206.417694,229.274002 193.249374,235.458328 178.103745,236.987579 
	C160.836517,238.731049 145.449646,233.789398 132.392853,222.638611 
	C121.545410,213.374664 114.876045,201.113342 113.167892,187.022736 
	C110.622002,166.021744 116.859444,147.678680 133.010727,132.998840 
z"/>
<path fill="#FFF28B" opacity="1.000000" stroke="none" 
	d="
M234.212234,263.441467 
	C243.808701,245.525467 258.498383,234.415024 277.923859,231.346176 
	C294.044006,228.799515 309.729156,231.858765 323.446838,241.907730 
	C336.426178,251.415771 344.535217,264.187988 346.772919,279.822754 
	C348.999939,295.383087 345.963623,310.350708 336.176788,323.305725 
	C324.792358,338.375458 309.602203,346.036987 290.760773,347.052063 
	C271.920502,348.067078 256.183746,341.506287 243.525574,327.890533 
	C234.453384,318.132019 229.531647,306.422516 228.896088,292.841034 
	C228.420074,282.668793 230.158157,273.089264 234.212234,263.441467 
z"/>
<path fill="#FFF28B" opacity="1.000000" stroke="none" 
	d="
M367.757812,445.261780 
	C356.077057,436.944305 348.905853,425.788361 346.155151,412.376556 
	C341.637970,390.352020 347.081848,370.766174 364.117401,355.576080 
	C375.060730,345.818237 388.114441,340.927460 403.236053,340.822998 
	C420.786072,340.701782 435.416168,346.705139 447.425079,359.045959 
	C457.646210,369.549591 462.723694,382.240601 463.145355,397.164093 
	C463.643097,414.778961 457.502899,429.403046 445.046082,441.295441 
	C434.497345,451.366211 421.596863,456.382874 406.866760,457.083435 
	C392.453400,457.768890 379.560089,454.103180 367.757812,445.261780 
z"/>
</svg>