<svg xmlns="http://www.w3.org/2000/svg" x="0px" y="0px" width="100" height="100" viewBox="0 0 64 64">
  <path d="M 32 6 C 17.664 6 6 17.663 6 32 C 6 46.337 17.664 58 32 58 C 46.336 58 58 46.337 58 32 C 58 17.663 46.336 6 32 6 z M 32 10 C 44.131 10 54 19.869 54 32 C 54 39.057642 50.655499 45.344632 45.472656 49.373047 L 39.867188 46.597656 L 39.644531 43.363281 C 40.854985 42.008069 41.952831 40.415801 42.689453 38.416016 C 43.385454 37.955803 45 36.739125 45 34.095703 C 45 32.538332 44.404598 31.586474 44 31.044922 L 44 28.5 L 44 26.857422 C 44 23.866097 43.146477 19.171661 40.591797 19.144531 C 40.58257 19.134856 40.571763 19.126828 40.5625 19.117188 L 39 14 C 26 14 20 17 20 27 L 20 28.5 L 20 31.044922 C 19.595402 31.586474 19 32.538332 19 34.095703 C 19 36.739125 20.614546 37.955791 21.310547 38.416016 C 22.047169 40.415801 23.145015 42.008069 24.355469 43.363281 L 24.132812 46.597656 L 18.527344 49.373047 C 13.344501 45.344632 10 39.057642 10 32 C 10 19.869 19.869 10 32 10 z M 25 23 C 25 23 28.143 24 32 24 C 35.857 24 38 23 38 23 C 41 25.571 41 32 41 32 L 41 32.082031 L 41.392578 32.511719 C 41.392578 32.511719 42 33.26237 42 34.095703 C 42 35.681203 40.833984 36.15625 40.833984 36.15625 L 40.267578 36.435547 L 40.074219 37.037109 C 39.24673 39.584848 37.488465 41.641811 35.857422 43.042969 C 35.0419 43.743548 34.261027 44.279718 33.683594 44.625 C 33.394877 44.797641 33.154509 44.923004 33.005859 44.992188 C 32.995709 44.996887 32.997561 44.9958 32.988281 45 L 32 45 L 31.011719 45 C 31.002419 44.9958 31.004321 44.996887 30.994141 44.992188 C 30.845493 44.922993 30.605123 44.797641 30.316406 44.625 C 29.738973 44.279718 28.9581 43.743548 28.142578 43.042969 C 26.511535 41.641811 24.75327 39.584848 23.925781 37.037109 L 23.732422 36.435547 L 23.166016 36.15625 C 23.166016 36.15625 22 35.681203 22 34.095703 C 22 33.26237 22.607422 32.511719 22.607422 32.511719 L 23 32.082031 L 23 32 C 23 32 22.857 25.143 25 23 z M 27.177734 46.037109 C 27.732809 46.452059 28.327735 46.931539 28.775391 47.199219 C 29.137846 47.415953 29.454216 47.583276 29.728516 47.710938 C 29.865666 47.774768 29.991017 47.828425 30.128906 47.876953 C 30.266795 47.925481 30.335937 48 30.777344 48 L 32 48 L 33.222656 48 C 33.664063 48 33.733205 47.92548 33.871094 47.876953 C 34.008983 47.828423 34.134334 47.774768 34.271484 47.710938 C 34.545784 47.583275 34.862154 47.415953 35.224609 47.199219 C 35.672265 46.931539 36.267191 46.452059 36.822266 46.037109 L 37.220703 51.826172 C 36.260063 52.302131 34.522513 52.925781 32 52.925781 C 29.477487 52.925781 27.739937 52.302131 26.779297 51.826172 L 27.177734 46.037109 z"></path>
</svg>
