<svg xmlns="http://www.w3.org/2000/svg" x="0px" y="0px" width="100" height="100" viewBox="0 0 64 64">
  <path d="M 47.5 5.0195312 L 39.296875 9.3164062 L 35.005859 17.1875 C 36.009927 17.730671 37.207847 17.534077 38 16.798828 L 38 20 C 32.245 19.915 26.396172 20.361656 20.701172 21.722656 C 15.944172 22.843656 11.335 24.612625 7 26.890625 L 7 31.431641 C 8.3027267 30.632155 9.6393226 29.889053 11 29.195312 L 11 34.75 C 12.27 33.92 13.61 33.159219 15 32.449219 L 15 27.351562 C 15.988718 26.942478 16.987678 26.558528 18 26.208984 L 18 31.019531 C 19.3 30.449531 20.63 29.929453 22 29.439453 L 22 25.005859 C 22.992621 24.7468 23.993093 24.518006 25 24.314453 L 25 28.439453 C 25.98 28.139453 26.99 27.850078 28 27.580078 L 28 23.785156 C 28.995159 23.635859 29.995723 23.510433 31 23.40625 L 31 26.849609 C 31.99 26.619609 32.99 26.410703 34 26.220703 L 34 23.154297 C 35.329294 23.071135 36.663242 23.019627 38 23 L 38 25.519531 C 39.32 25.309531 40.66 25.130703 42 24.970703 L 42 19 L 53 19 L 53 24.119141 C 54.36 24.059141 55.699062 24.029766 57.039062 24.009766 L 57.039062 16.728516 C 57.797857 17.487853 58.977914 17.73225 60 17.238281 L 56.134766 9.3164062 L 47.5 5.0195312 z M 46 12 L 49 12 L 49 15 L 46 15 L 46 12 z M 56.820312 27 C 53.870312 27 50.869609 27.089531 47.849609 27.269531 C 45.239609 28.669531 42.789141 30.340078 40.619141 32.330078 C 38.209141 34.510078 36.160313 37.079687 34.570312 39.929688 C 31.830313 44.779687 30.499141 50.35 30.119141 56 L 42.019531 56 C 42.069531 53.94 42.219531 51.880547 42.519531 49.810547 C 42.949531 46.750547 43.73 43.700313 45 40.820312 C 46.26 37.930312 48.009609 35.250391 50.099609 32.900391 C 52.099609 30.660391 54.390313 28.72 56.820312 27 z M 41.730469 27.759766 C 38.810469 28.059766 35.920078 28.460703 33.080078 28.970703 C 30.690078 30.380703 28.400781 31.940938 26.300781 33.710938 C 23.870781 35.760938 21.700469 38.119531 19.980469 40.769531 C 18.250469 43.419531 16.979688 46.359219 16.179688 49.449219 C 15.629688 51.579219 15.300625 53.78 15.140625 56 L 28.060547 56 C 28.180547 53.31 28.51 50.47 29 48 C 29.69 44.58 30.719141 41.860234 32.369141 38.740234 C 34.009141 35.620234 36.180234 32.760312 38.740234 30.320312 C 39.690234 29.410313 40.690469 28.559766 41.730469 27.759766 z M 57 30.509766 C 55.25 31.779766 53.610859 33.189766 52.130859 34.759766 C 50.160859 36.849766 48.509297 39.239609 47.279297 41.849609 C 46.039297 44.449609 45.230234 47.270156 44.740234 50.160156 C 44.410234 52.080156 44.219375 54.03 44.109375 56 L 53 56 C 55.21 56 57 54.21 57 52 L 57 30.509766 z M 25.720703 30.589844 C 18.560703 32.469844 12.07 35.2 7 39 L 7 52 C 7 54.21 8.79 56 11 56 L 13.060547 56 C 13.170547 53.63 13.46 51.259922 14 48.919922 C 14.76 45.589922 16.059375 42.359687 17.859375 39.429688 C 19.659375 36.499687 21.95 33.890859 24.5 31.630859 C 24.9 31.270859 25.300703 30.929844 25.720703 30.589844 z"></path>
</svg>
