<svg xmlns="http://www.w3.org/2000/svg" x="0px" y="0px" width="100" height="100" viewBox="0 0 64 64">
  <path d="M 16.900391 5 C 4.9703906 5 4.37 19.44 0 25 C 1.1145521e-15 27.164658 4.6869637 33.197767 10.332031 35.451172 L 10.228516 38.28125 L 2.3398438 41.150391 C 3.7998437 43.800391 9.8 47 17 47 C 17.86 47 18.709297 46.949141 19.529297 46.869141 C 19.239297 46.369141 18.989766 45.850078 18.759766 45.330078 C 18.289766 44.910078 17.879297 44.429922 17.529297 43.919922 C 17.359297 43.929922 17.18 43.929688 17 43.929688 C 15.334902 43.929688 14.027839 43.654443 13.042969 43.332031 L 13.263672 37.369141 C 14.262132 38.082043 15.223017 38.594673 16.009766 38.830078 C 16.039766 37.710078 16.310391 36.730156 16.650391 35.910156 C 15.240391 35.370156 11.449687 32.729062 9.9296875 28.039062 L 9.7207031 27.449219 L 9.1894531 27.169922 C 9.0594531 27.099922 8 26.489844 8 25.089844 C 8 24.219844 8.609375 23.509766 8.609375 23.509766 L 9 23.080078 L 9 20.289062 C 9.63 20.009063 15.98 17.15 19 13 L 20 16 C 22.38 16 23 14 23 14 C 23.84 15.26 24.350625 17.409922 24.640625 19.169922 C 26.760625 18.199922 29.110391 17.659375 31.400391 17.359375 C 29.390391 11.409375 25.150391 5 16.900391 5 z M 49 5 C 37.25 5 34.999766 12.750547 35.009766 17.060547 C 36.309766 17.010547 37.529844 17 38.589844 17 C 38.889844 15.78 39.34 14.66 40 14 C 40 14 43.14 15 47 15 C 50.86 15 53 14 53 14 C 56 16.57 56 23 56 23 L 56.007812 23 L 56.009766 23.080078 L 56.380859 23.5 C 56.390859 23.51 57 24.219844 57 25.089844 C 57 26.489844 55.940078 27.100156 55.830078 27.160156 L 55.269531 27.439453 L 55.070312 28.039062 C 53.530313 32.779062 48.970234 35.56 47.990234 36 L 47 36 L 46.289062 36 C 46.669063 36.81 46.98 37.82 47 39 L 48.220703 39 C 48.777592 39 50.209624 38.312246 51.826172 37.097656 L 52.222656 42.828125 C 51.262224 43.304297 49.52307 43.929688 47 43.929688 C 46.39 43.929688 45.820781 43.890078 45.300781 43.830078 C 44.990781 44.200078 44.680156 44.490469 44.410156 44.730469 C 44.130156 45.410469 43.790156 46.080469 43.410156 46.730469 C 44.560156 46.910469 45.76 47 47 47 C 54.34 47 60.430469 43.68 61.730469 41 L 54.867188 37.597656 L 54.654297 34.505859 C 55.889621 33.113588 57.018779 31.432613 57.740234 29.490234 C 58.760234 28.760234 60 27.289844 60 25.089844 C 60 23.709844 59.42 22.61 59 22 L 59 19.5 L 59 17.859375 C 59 14.884829 58.152296 10.227394 55.632812 10.148438 C 55.605158 10.119327 55.574833 10.093234 55.546875 10.064453 L 55.460938 9.7792969 C 54.590937 6.9392969 51.97 5 49 5 z M 39 19 C 26 19 20 22 20 32 L 20 33.5 L 20 36.044922 C 19.595402 36.586474 19 37.538332 19 39.095703 C 19 41.739125 20.614546 42.955791 21.310547 43.416016 C 22.046589 45.414227 23.156345 47.104696 24.347656 48.476562 L 24.132812 51.597656 L 17.265625 54.996094 C 18.564625 57.675094 24.662 61 32 61 C 39.338 61 45.435375 57.675094 46.734375 54.996094 L 39.867188 51.597656 L 39.652344 48.476562 C 40.843655 47.104696 41.953411 45.414227 42.689453 43.416016 C 43.385454 42.955803 45 41.739125 45 39.095703 C 45 37.538332 44.404598 36.586474 44 36.044922 L 44 33.5 L 44 31.857422 C 44 28.866097 43.146477 24.171661 40.591797 24.144531 C 40.58257 24.134856 40.571763 24.126828 40.5625 24.117188 L 39 19 z M 25 28 C 25 28 28.143 29 32 29 C 35.857 29 38 28 38 28 C 41 30.571 41 37 41 37 L 41 37.082031 L 41.392578 37.511719 C 41.392578 37.511719 42 38.26237 42 39.095703 C 42 40.681203 40.833984 41.15625 40.833984 41.15625 L 40.267578 41.435547 L 40.074219 42.037109 C 39.24673 44.584848 37.488465 46.641811 35.857422 48.042969 C 35.0419 48.743548 34.261027 49.279718 33.683594 49.625 C 33.394877 49.797641 33.154509 49.923004 33.005859 49.992188 C 32.995709 49.996887 32.997561 49.9958 32.988281 50 L 32 50 L 31.011719 50 C 31.002419 49.9958 31.004321 49.996887 30.994141 49.992188 C 30.845493 49.922993 30.605123 49.797641 30.316406 49.625 C 29.738973 49.279718 28.9581 48.743548 28.142578 48.042969 C 26.511535 46.641811 24.75327 44.584848 23.925781 42.037109 L 23.732422 41.435547 L 23.166016 41.15625 C 23.166016 41.15625 22 40.681203 22 39.095703 C 22 38.26237 22.607422 37.511719 22.607422 37.511719 L 23 37.082031 L 23 37 C 23 37 22.857 30.143 25 28 z M 27.173828 51.09375 C 27.754991 51.532317 28.309341 51.920539 28.775391 52.199219 C 29.137846 52.415953 29.454216 52.583276 29.728516 52.710938 C 29.865666 52.774768 29.991017 52.828425 30.128906 52.876953 C 30.266795 52.925481 30.335937 53 30.777344 53 L 32 53 L 33.222656 53 C 33.664063 53 33.733205 52.92548 33.871094 52.876953 C 34.008983 52.828423 34.134334 52.774768 34.271484 52.710938 C 34.545784 52.583275 34.862154 52.415953 35.224609 52.199219 C 35.690659 51.920539 36.245009 51.532317 36.826172 51.09375 L 37.220703 56.826172 C 36.260063 57.302131 34.522513 57.925781 32 57.925781 C 29.477487 57.925781 27.739937 57.302131 26.779297 56.826172 L 27.173828 51.09375 z"></path>
</svg>
