<svg xmlns="http://www.w3.org/2000/svg" x="0px" y="0px" width="100" height="100" viewBox="0 0 64 64">
  <path d="M 32 6 C 25 6 20 10 20 10 L 21 12 C 18 13 16 15 16 15 L 17 18 C 15 20 14 23 14 23 L 16 25 C 16 25 14 27 14 31 L 19.283203 34.521484 C 20.269377 37.068751 21.932479 39.530857 23.857422 41.517578 L 23.527344 46.316406 L 6 52 L 6.4433594 54.658203 C 6.7643594 56.586203 8.4336719 58 10.388672 58 L 53.611328 58 C 55.566328 58 57.234641 56.586203 57.556641 54.658203 L 58 52 L 40.472656 46.316406 L 40.142578 41.517578 C 42.067494 39.530885 43.729713 37.068713 44.716797 34.521484 L 50 31 C 50 27 48 25 48 25 L 50 23 C 50 23 49 20 47 18 L 48 15 C 48 15 46 13 43 12 L 44 10 C 44 10 39 6 32 6 z M 34 17 L 36 22 L 40.689453 19.654297 C 40.78314 19.762966 41 20 41 20 L 42 27 C 42.612042 27 43.31742 27.47612 43.705078 28.095703 C 43.856027 28.444369 44 28.917495 44 29.5 C 44 31.179 42.59875 32.300688 42.59375 32.304688 L 42.232422 32.578125 L 42.082031 33.007812 C 40.098031 38.709813 34.598 43 32 43 C 29.402 43 23.901969 38.709812 21.917969 33.007812 L 21.767578 32.578125 L 21.40625 32.304688 C 21.39225 32.293687 20 31.191 20 29.5 C 20 28.918737 20.141933 28.446381 20.291016 28.099609 C 20.678011 27.477777 21.386453 27 22 27 L 23 20 C 23 20 24.207355 18.528481 26.089844 17.179688 L 28 21 L 34 17 z M 26.697266 43.960938 C 28.511266 45.231938 30.373 46 32 46 C 33.627 46 35.489687 45.231938 37.304688 43.960938 L 37.851562 51.898438 C 36.607525 52.43042 34.672661 53 32 53 C 29.327339 53 27.392475 52.43042 26.148438 51.898438 L 26.697266 43.960938 z"></path>
</svg>
